<svg width="120" height="24" viewBox="0 0 120 24" fill="none" xmlns="http://www.w3.org/2000/svg">
<mask id="mask0_10_4008" style="mask-type:alpha" maskUnits="userSpaceOnUse" x="0" y="2" width="20" height="20">
<rect y="2" width="20" height="20" fill="#D9D9D9"/>
</mask>
<g mask="url(#mask0_10_4008)">
<path d="M18.4792 10.7708C18.632 10.9375 18.7084 11.1354 18.7084 11.3646C18.7084 11.5938 18.632 11.7917 18.4792 11.9583L15.5209 14.8958C15.3681 15.0625 15.1737 15.1458 14.9375 15.1458C14.7014 15.1458 14.507 15.0625 14.3542 14.8958L13.1667 13.7292C13 13.5625 12.9167 13.3646 12.9167 13.1354C12.9167 12.9063 13 12.7083 13.1667 12.5417C13.3334 12.3889 13.5313 12.3125 13.7605 12.3125C13.9896 12.3125 14.1875 12.3889 14.3542 12.5417L14.9375 13.125L17.2917 10.7708C17.4584 10.6181 17.6563 10.5417 17.8855 10.5417C18.1146 10.5417 18.3125 10.6181 18.4792 10.7708ZM8.60421 19.0208L6.52087 17.125C5.52087 16.2222 4.66323 15.4167 3.94796 14.7083C3.23268 14 2.6424 13.3333 2.17712 12.7083C1.71185 12.0833 1.37157 11.4792 1.15629 10.8958C0.941013 10.3125 0.833374 9.70139 0.833374 9.0625C0.833374 7.75694 1.27087 6.67014 2.14587 5.80208C3.02087 4.93403 4.11115 4.5 5.41671 4.5C6.13893 4.5 6.82643 4.64931 7.47921 4.94792C8.13198 5.24653 8.69449 5.67361 9.16671 6.22917C9.63893 5.67361 10.2014 5.24653 10.8542 4.94792C11.507 4.64931 12.1945 4.5 12.9167 4.5C14.0973 4.5 15.0868 4.85764 15.8855 5.57292C16.6841 6.28819 17.1806 7.125 17.375 8.08333C17.0973 7.97222 16.8056 7.90278 16.5 7.875C16.1945 7.84722 15.882 7.83333 15.5625 7.83333C14.382 7.83333 13.2987 8.30903 12.3125 9.26042C11.3264 10.2118 10.8334 11.4028 10.8334 12.8333C10.8334 13.5 10.9792 14.1771 11.2709 14.8646C11.5625 15.5521 11.9723 16.1111 12.5 16.5417C12.2362 16.7778 11.8924 17.0799 11.4688 17.4479C11.0452 17.816 10.6806 18.1389 10.375 18.4167L9.70837 19.0208C9.5556 19.1597 9.37157 19.2292 9.15629 19.2292C8.94101 19.2292 8.75698 19.1597 8.60421 19.0208Z" fill="#5B8350"/>
</g>
<path d="M25.136 17V5.8H32.368V7.352H27.056V10.568H31.888V12.088H27.056V15.448H32.368V17H25.136ZM33.57 17L36.418 12.968L33.57 8.936H35.634L37.65 11.864L39.666 8.936H41.73L38.882 12.968L41.73 17H39.666L37.65 14.072L35.634 17H33.57ZM46.521 17.192C45.7317 17.192 45.0223 17.016 44.393 16.664C43.7743 16.3013 43.289 15.8053 42.937 15.176C42.5957 14.536 42.425 13.8107 42.425 13C42.425 12.1573 42.5957 11.4213 42.937 10.792C43.289 10.152 43.7743 9.65067 44.393 9.288C45.0223 8.92533 45.737 8.744 46.537 8.744C47.5397 8.744 48.3823 9.01067 49.065 9.544C49.7477 10.0667 50.185 10.7867 50.377 11.704H48.361C48.2543 11.2987 48.0303 10.9787 47.689 10.744C47.3583 10.5093 46.9637 10.392 46.505 10.392C46.1103 10.392 45.7477 10.4933 45.417 10.696C45.097 10.8987 44.841 11.192 44.649 11.576C44.4677 11.96 44.377 12.424 44.377 12.968C44.377 13.384 44.4303 13.752 44.537 14.072C44.6437 14.392 44.793 14.664 44.985 14.888C45.1877 15.1013 45.417 15.2667 45.673 15.384C45.929 15.5013 46.2063 15.56 46.505 15.56C46.8143 15.56 47.0917 15.512 47.337 15.416C47.593 15.3093 47.8063 15.1547 47.977 14.952C48.1583 14.7493 48.2863 14.5093 48.361 14.232H50.377C50.185 15.128 49.7477 15.848 49.065 16.392C48.3823 16.9253 47.5343 17.192 46.521 17.192ZM56.0043 17.192C55.2043 17.192 54.5003 17.0213 53.8923 16.68C53.2843 16.328 52.8096 15.8373 52.4683 15.208C52.1269 14.5787 51.9563 13.8533 51.9563 13.032C51.9563 12.1787 52.1216 11.432 52.4523 10.792C52.7936 10.152 53.2683 9.65067 53.8763 9.288C54.4949 8.92533 55.2096 8.744 56.0203 8.744C56.8096 8.744 57.4976 8.92 58.0843 9.272C58.6709 9.624 59.1243 10.0987 59.4443 10.696C59.7643 11.2827 59.9243 11.944 59.9243 12.68C59.9243 12.7867 59.9243 12.904 59.9243 13.032C59.9243 13.16 59.9136 13.2933 59.8923 13.432H53.3323V12.2H57.9883C57.9669 11.6133 57.7696 11.1547 57.3963 10.824C57.0229 10.4827 56.5589 10.312 56.0043 10.312C55.6096 10.312 55.2469 10.4027 54.9163 10.584C54.5856 10.7653 54.3243 11.0373 54.1323 11.4C53.9403 11.752 53.8443 12.2 53.8443 12.744V13.208C53.8443 13.7093 53.9349 14.1413 54.1163 14.504C54.3083 14.8667 54.5643 15.144 54.8843 15.336C55.2149 15.5173 55.5829 15.608 55.9883 15.608C56.4363 15.608 56.8043 15.512 57.0923 15.32C57.3909 15.128 57.6096 14.872 57.7483 14.552H59.7003C59.5509 15.0533 59.3056 15.5067 58.9643 15.912C58.6229 16.3067 58.2016 16.6213 57.7003 16.856C57.1989 17.08 56.6336 17.192 56.0043 17.192ZM61.697 17V5.48H63.617V17H61.697ZM65.7595 17V5.48H67.6795V17H65.7595ZM73.598 17.192C72.798 17.192 72.094 17.0213 71.486 16.68C70.878 16.328 70.4033 15.8373 70.062 15.208C69.7207 14.5787 69.55 13.8533 69.55 13.032C69.55 12.1787 69.7153 11.432 70.046 10.792C70.3873 10.152 70.862 9.65067 71.47 9.288C72.0887 8.92533 72.8033 8.744 73.614 8.744C74.4033 8.744 75.0913 8.92 75.678 9.272C76.2647 9.624 76.718 10.0987 77.038 10.696C77.358 11.2827 77.518 11.944 77.518 12.68C77.518 12.7867 77.518 12.904 77.518 13.032C77.518 13.16 77.5073 13.2933 77.486 13.432H70.926V12.2H75.582C75.5607 11.6133 75.3633 11.1547 74.99 10.824C74.6167 10.4827 74.1527 10.312 73.598 10.312C73.2033 10.312 72.8407 10.4027 72.51 10.584C72.1793 10.7653 71.918 11.0373 71.726 11.4C71.534 11.752 71.438 12.2 71.438 12.744V13.208C71.438 13.7093 71.5287 14.1413 71.71 14.504C71.902 14.8667 72.158 15.144 72.478 15.336C72.8087 15.5173 73.1767 15.608 73.582 15.608C74.03 15.608 74.398 15.512 74.686 15.32C74.9847 15.128 75.2033 14.872 75.342 14.552H77.294C77.1447 15.0533 76.8993 15.5067 76.558 15.912C76.2167 16.3067 75.7953 16.6213 75.294 16.856C74.7927 17.08 74.2273 17.192 73.598 17.192ZM79.2908 17V8.936H80.9868L81.1308 10.28C81.3761 9.81067 81.7281 9.43733 82.1868 9.16C82.6454 8.88267 83.1894 8.744 83.8188 8.744C84.4694 8.744 85.0241 8.88267 85.4828 9.16C85.9414 9.42667 86.2934 9.82133 86.5388 10.344C86.7948 10.8667 86.9228 11.5173 86.9228 12.296V17H85.0028V12.472C85.0028 11.8 84.8534 11.2827 84.5548 10.92C84.2561 10.5573 83.8134 10.376 83.2268 10.376C82.8428 10.376 82.4961 10.4667 82.1868 10.648C81.8881 10.8293 81.6481 11.096 81.4668 11.448C81.2961 11.7893 81.2108 12.2053 81.2108 12.696V17H79.2908ZM92.451 17C91.907 17 91.4323 16.9147 91.027 16.744C90.6323 16.5733 90.323 16.2907 90.099 15.896C89.875 15.5013 89.763 14.968 89.763 14.296V10.552H88.387V8.936H89.763L89.987 6.808H91.683V8.936H93.875V10.552H91.683V14.296C91.683 14.7013 91.7683 14.984 91.939 15.144C92.1203 15.2933 92.419 15.368 92.835 15.368H93.827V17H92.451ZM96.1294 13.48L95.9054 5.8H97.9694L97.7614 13.48H96.1294ZM96.9454 17.08C96.5934 17.08 96.3 16.968 96.0654 16.744C95.8414 16.52 95.7294 16.2533 95.7294 15.944C95.7294 15.6133 95.8414 15.336 96.0654 15.112C96.3 14.888 96.5934 14.776 96.9454 14.776C97.308 14.776 97.596 14.888 97.8094 15.112C98.0334 15.336 98.1454 15.6133 98.1454 15.944C98.1454 16.2533 98.0334 16.52 97.8094 16.744C97.596 16.968 97.308 17.08 96.9454 17.08Z" fill="#5B8350"/>
</svg>
