<svg width="120" height="24" viewBox="0 0 120 24" fill="none" xmlns="http://www.w3.org/2000/svg">
<mask id="mask0_10_4076" style="mask-type:alpha" maskUnits="userSpaceOnUse" x="0" y="2" width="20" height="20">
<rect y="2" width="20" height="20" fill="#D9D9D9"/>
</mask>
<g mask="url(#mask0_10_4076)">
<path d="M18.4792 10.7708C18.632 10.9375 18.7084 11.1354 18.7084 11.3646C18.7084 11.5938 18.632 11.7917 18.4792 11.9583L15.5209 14.8958C15.3681 15.0625 15.1737 15.1458 14.9375 15.1458C14.7014 15.1458 14.507 15.0625 14.3542 14.8958L13.1667 13.7292C13 13.5625 12.9167 13.3646 12.9167 13.1354C12.9167 12.9063 13 12.7083 13.1667 12.5417C13.3334 12.3889 13.5313 12.3125 13.7605 12.3125C13.9896 12.3125 14.1875 12.3889 14.3542 12.5417L14.9375 13.125L17.2917 10.7708C17.4584 10.6181 17.6563 10.5417 17.8855 10.5417C18.1146 10.5417 18.3125 10.6181 18.4792 10.7708ZM8.60421 19.0208L6.52087 17.125C5.52087 16.2222 4.66323 15.4167 3.94796 14.7083C3.23268 14 2.6424 13.3333 2.17712 12.7083C1.71185 12.0833 1.37157 11.4792 1.15629 10.8958C0.941013 10.3125 0.833374 9.70139 0.833374 9.0625C0.833374 7.75694 1.27087 6.67014 2.14587 5.80208C3.02087 4.93403 4.11115 4.5 5.41671 4.5C6.13893 4.5 6.82643 4.64931 7.47921 4.94792C8.13198 5.24653 8.69449 5.67361 9.16671 6.22917C9.63893 5.67361 10.2014 5.24653 10.8542 4.94792C11.507 4.64931 12.1945 4.5 12.9167 4.5C14.0973 4.5 15.0868 4.85764 15.8855 5.57292C16.6841 6.28819 17.1806 7.125 17.375 8.08333C17.0973 7.97222 16.8056 7.90278 16.5 7.875C16.1945 7.84722 15.882 7.83333 15.5625 7.83333C14.382 7.83333 13.2987 8.30903 12.3125 9.26042C11.3264 10.2118 10.8334 11.4028 10.8334 12.8333C10.8334 13.5 10.9792 14.1771 11.2709 14.8646C11.5625 15.5521 11.9723 16.1111 12.5 16.5417C12.2362 16.7778 11.8924 17.0799 11.4688 17.4479C11.0452 17.816 10.6806 18.1389 10.375 18.4167L9.70837 19.0208C9.5556 19.1597 9.37157 19.2292 9.15629 19.2292C8.94101 19.2292 8.75698 19.1597 8.60421 19.0208Z" fill="#74A766"/>
</g>
<path d="M30.016 17.192C28.96 17.192 28.032 16.952 27.232 16.472C26.4427 15.992 25.8293 15.3253 25.392 14.472C24.9547 13.608 24.736 12.6 24.736 11.448C24.736 10.3067 24.96 9.29867 25.408 8.424C25.856 7.53867 26.496 6.85067 27.328 6.36C28.1707 5.85867 29.168 5.608 30.32 5.608C31.6213 5.608 32.6987 5.92267 33.552 6.552C34.416 7.17067 34.976 8.03467 35.232 9.144H33.072C32.912 8.58933 32.5973 8.15733 32.128 7.848C31.6587 7.53867 31.0507 7.384 30.304 7.384C29.5467 7.384 28.896 7.54933 28.352 7.88C27.8187 8.2 27.408 8.66933 27.12 9.288C26.8427 9.896 26.704 10.6213 26.704 11.464C26.704 12.3067 26.8427 13.032 27.12 13.64C27.408 14.248 27.8133 14.712 28.336 15.032C28.8587 15.3413 29.472 15.496 30.176 15.496C31.2213 15.496 32.0107 15.2027 32.544 14.616C33.0773 14.0293 33.392 13.2667 33.488 12.328H30.592V10.872H35.424V17H33.664L33.504 15.464C33.2587 15.8267 32.976 16.1413 32.656 16.408C32.336 16.664 31.9573 16.8613 31.52 17C31.0933 17.128 30.592 17.192 30.016 17.192ZM41.1914 17.192C40.4234 17.192 39.73 17.016 39.1114 16.664C38.5034 16.3013 38.0234 15.8053 37.6714 15.176C37.33 14.536 37.1594 13.8053 37.1594 12.984C37.1594 12.1413 37.3354 11.4053 37.6874 10.776C38.0394 10.136 38.5194 9.64 39.1274 9.288C39.746 8.92533 40.4394 8.744 41.2074 8.744C41.9754 8.744 42.6634 8.92533 43.2714 9.288C43.89 9.64 44.37 10.1307 44.7114 10.76C45.0634 11.3893 45.2394 12.1253 45.2394 12.968C45.2394 13.8107 45.0634 14.5467 44.7114 15.176C44.3594 15.8053 43.874 16.3013 43.2554 16.664C42.6474 17.016 41.9594 17.192 41.1914 17.192ZM41.1914 15.544C41.5754 15.544 41.922 15.448 42.2314 15.256C42.5514 15.064 42.8074 14.776 42.9994 14.392C43.1914 14.008 43.2874 13.5333 43.2874 12.968C43.2874 12.4027 43.1914 11.9333 42.9994 11.56C42.818 11.176 42.5674 10.888 42.2474 10.696C41.938 10.504 41.5914 10.408 41.2074 10.408C40.834 10.408 40.4874 10.504 40.1674 10.696C39.8474 10.888 39.5914 11.176 39.3994 11.56C39.2074 11.9333 39.1114 12.4027 39.1114 12.968C39.1114 13.5333 39.2074 14.008 39.3994 14.392C39.5914 14.776 39.842 15.064 40.1514 15.256C40.4714 15.448 40.818 15.544 41.1914 15.544ZM50.8789 17.192C50.1109 17.192 49.4175 17.016 48.7989 16.664C48.1909 16.3013 47.7109 15.8053 47.3589 15.176C47.0175 14.536 46.8469 13.8053 46.8469 12.984C46.8469 12.1413 47.0229 11.4053 47.3749 10.776C47.7269 10.136 48.2069 9.64 48.8149 9.288C49.4335 8.92533 50.1269 8.744 50.8949 8.744C51.6629 8.744 52.3509 8.92533 52.9589 9.288C53.5775 9.64 54.0575 10.1307 54.3989 10.76C54.7509 11.3893 54.9269 12.1253 54.9269 12.968C54.9269 13.8107 54.7509 14.5467 54.3989 15.176C54.0469 15.8053 53.5615 16.3013 52.9429 16.664C52.3349 17.016 51.6469 17.192 50.8789 17.192ZM50.8789 15.544C51.2629 15.544 51.6095 15.448 51.9189 15.256C52.2389 15.064 52.4949 14.776 52.6869 14.392C52.8789 14.008 52.9749 13.5333 52.9749 12.968C52.9749 12.4027 52.8789 11.9333 52.6869 11.56C52.5055 11.176 52.2549 10.888 51.9349 10.696C51.6255 10.504 51.2789 10.408 50.8949 10.408C50.5215 10.408 50.1749 10.504 49.8549 10.696C49.5349 10.888 49.2789 11.176 49.0869 11.56C48.8949 11.9333 48.7989 12.4027 48.7989 12.968C48.7989 13.5333 48.8949 14.008 49.0869 14.392C49.2789 14.776 49.5295 15.064 49.8389 15.256C50.1589 15.448 50.5055 15.544 50.8789 15.544ZM60.3904 17.192C59.6437 17.192 58.977 17.0107 58.3904 16.648C57.8037 16.2853 57.345 15.784 57.0144 15.144C56.6944 14.504 56.5344 13.7787 56.5344 12.968C56.5344 12.1573 56.6997 11.4373 57.0304 10.808C57.361 10.168 57.8197 9.66667 58.4064 9.304C59.0037 8.93067 59.6757 8.744 60.4224 8.744C61.0304 8.744 61.5584 8.86133 62.0064 9.096C62.465 9.32 62.8277 9.64 63.0944 10.056V5.48H65.0144V17H63.2864L63.0944 15.832C62.9237 16.0667 62.7157 16.2907 62.4704 16.504C62.225 16.7067 61.9317 16.872 61.5904 17C61.249 17.128 60.849 17.192 60.3904 17.192ZM60.7904 15.528C61.249 15.528 61.6544 15.4213 62.0064 15.208C62.3584 14.984 62.6304 14.68 62.8224 14.296C63.0144 13.912 63.1104 13.4693 63.1104 12.968C63.1104 12.4667 63.0144 12.024 62.8224 11.64C62.6304 11.256 62.3584 10.9573 62.0064 10.744C61.6544 10.5307 61.249 10.424 60.7904 10.424C60.353 10.424 59.9584 10.5307 59.6064 10.744C59.2544 10.9573 58.977 11.256 58.7744 11.64C58.5824 12.024 58.4864 12.4667 58.4864 12.968C58.4864 13.4693 58.5824 13.912 58.7744 14.296C58.977 14.68 59.2544 14.984 59.6064 15.208C59.9584 15.4213 60.353 15.528 60.7904 15.528Z" fill="#74A766"/>
</svg>
