<svg width="120" height="24" viewBox="0 0 120 24" fill="none" xmlns="http://www.w3.org/2000/svg">
<mask id="mask0_10_4216" style="mask-type:alpha" maskUnits="userSpaceOnUse" x="0" y="2" width="20" height="20">
<rect y="2" width="20" height="20" fill="#D9D9D9"/>
</mask>
<g mask="url(#mask0_10_4216)">
<path d="M8.93746 18.5417C7.42357 17.2083 6.1944 16.0868 5.24996 15.1771C4.30552 14.2674 3.56593 13.4688 3.03121 12.7812C2.49649 12.0938 2.13538 11.4653 1.94788 10.8958C1.76038 10.3264 1.66663 9.72222 1.66663 9.08333C1.66663 7.80556 2.11107 6.72222 2.99996 5.83333C3.88885 4.94444 4.97218 4.5 6.24996 4.5C6.87496 4.5 7.47913 4.61458 8.06246 4.84375C8.64579 5.07292 9.16663 5.40278 9.62496 5.83333L8.64579 9.27083C8.57635 9.54861 8.62149 9.79514 8.78121 10.0104C8.94093 10.2257 9.15968 10.3333 9.43746 10.3333H10.8333L10.2916 15.625C10.2777 15.7361 10.3229 15.7986 10.427 15.8125C10.5312 15.8264 10.5972 15.7847 10.625 15.6875L12.1666 10.5833C12.25 10.3056 12.2083 10.0556 12.0416 9.83333C11.875 9.61111 11.6527 9.5 11.375 9.5H9.99996L11.4791 5.08333C11.8263 4.88889 12.1909 4.74306 12.5729 4.64583C12.9548 4.54861 13.3472 4.5 13.75 4.5C15.0277 4.5 16.1111 4.94444 17 5.83333C17.8888 6.72222 18.3333 7.80556 18.3333 9.08333C18.3333 9.69444 18.2222 10.2986 18 10.8958C17.7777 11.4931 17.3923 12.1528 16.8437 12.875C16.2951 13.5972 15.559 14.4132 14.6354 15.3229C13.7118 16.2326 12.5416 17.3056 11.125 18.5417C10.9722 18.6806 10.7986 18.7847 10.6041 18.8542C10.4097 18.9236 10.2152 18.9583 10.0208 18.9583C9.82635 18.9583 9.63538 18.9236 9.44788 18.8542C9.26038 18.7847 9.09024 18.6806 8.93746 18.5417Z" fill="#E85D5D"/>
</g>
<path d="M25.136 17V5.8H29.168C30.064 5.8 30.8053 5.95467 31.392 6.264C31.9787 6.56267 32.416 6.968 32.704 7.48C32.992 7.992 33.136 8.57867 33.136 9.24C33.136 9.85867 32.9973 10.4293 32.72 10.952C32.4427 11.464 32.0107 11.88 31.424 12.2C30.8373 12.5093 30.0853 12.664 29.168 12.664H27.056V17H25.136ZM27.056 11.096H29.056C29.8133 11.096 30.3573 10.9307 30.688 10.6C31.0187 10.2587 31.184 9.80533 31.184 9.24C31.184 8.65333 31.0187 8.19467 30.688 7.864C30.3573 7.53333 29.8133 7.368 29.056 7.368H27.056V11.096ZM38.0664 17.192C37.2984 17.192 36.605 17.016 35.9864 16.664C35.3784 16.3013 34.8984 15.8053 34.5464 15.176C34.205 14.536 34.0344 13.8053 34.0344 12.984C34.0344 12.1413 34.2104 11.4053 34.5624 10.776C34.9144 10.136 35.3944 9.64 36.0024 9.288C36.621 8.92533 37.3144 8.744 38.0824 8.744C38.8504 8.744 39.5384 8.92533 40.1464 9.288C40.765 9.64 41.245 10.1307 41.5864 10.76C41.9384 11.3893 42.1144 12.1253 42.1144 12.968C42.1144 13.8107 41.9384 14.5467 41.5864 15.176C41.2344 15.8053 40.749 16.3013 40.1304 16.664C39.5224 17.016 38.8344 17.192 38.0664 17.192ZM38.0664 15.544C38.4504 15.544 38.797 15.448 39.1064 15.256C39.4264 15.064 39.6824 14.776 39.8744 14.392C40.0664 14.008 40.1624 13.5333 40.1624 12.968C40.1624 12.4027 40.0664 11.9333 39.8744 11.56C39.693 11.176 39.4424 10.888 39.1224 10.696C38.813 10.504 38.4664 10.408 38.0824 10.408C37.709 10.408 37.3624 10.504 37.0424 10.696C36.7224 10.888 36.4664 11.176 36.2744 11.56C36.0824 11.9333 35.9864 12.4027 35.9864 12.968C35.9864 13.5333 36.0824 14.008 36.2744 14.392C36.4664 14.776 36.717 15.064 37.0264 15.256C37.3464 15.448 37.693 15.544 38.0664 15.544ZM47.7539 17.192C46.9859 17.192 46.2925 17.016 45.6739 16.664C45.0659 16.3013 44.5859 15.8053 44.2339 15.176C43.8925 14.536 43.7219 13.8053 43.7219 12.984C43.7219 12.1413 43.8979 11.4053 44.2499 10.776C44.6019 10.136 45.0819 9.64 45.6899 9.288C46.3085 8.92533 47.0019 8.744 47.7699 8.744C48.5379 8.744 49.2259 8.92533 49.8339 9.288C50.4525 9.64 50.9325 10.1307 51.2739 10.76C51.6259 11.3893 51.8019 12.1253 51.8019 12.968C51.8019 13.8107 51.6259 14.5467 51.2739 15.176C50.9219 15.8053 50.4365 16.3013 49.8179 16.664C49.2099 17.016 48.5219 17.192 47.7539 17.192ZM47.7539 15.544C48.1379 15.544 48.4845 15.448 48.7939 15.256C49.1139 15.064 49.3699 14.776 49.5619 14.392C49.7539 14.008 49.8499 13.5333 49.8499 12.968C49.8499 12.4027 49.7539 11.9333 49.5619 11.56C49.3805 11.176 49.1299 10.888 48.8099 10.696C48.5005 10.504 48.1539 10.408 47.7699 10.408C47.3965 10.408 47.0499 10.504 46.7299 10.696C46.4099 10.888 46.1539 11.176 45.9619 11.56C45.7699 11.9333 45.6739 12.4027 45.6739 12.968C45.6739 13.5333 45.7699 14.008 45.9619 14.392C46.1539 14.776 46.4045 15.064 46.7139 15.256C47.0339 15.448 47.3805 15.544 47.7539 15.544ZM53.6814 17V8.936H55.3934L55.5694 10.44C55.7614 10.088 56.0014 9.78933 56.2894 9.544C56.5774 9.288 56.9134 9.09067 57.2974 8.952C57.692 8.81333 58.124 8.744 58.5934 8.744V10.776H57.9214C57.6014 10.776 57.2974 10.8187 57.0094 10.904C56.7214 10.9787 56.4707 11.1067 56.2574 11.288C56.0547 11.4587 55.8947 11.6987 55.7774 12.008C55.66 12.3067 55.6014 12.6853 55.6014 13.144V17H53.6814Z" fill="#E85D5D"/>
</svg>
