<svg width="96" height="8" viewBox="0 0 96 8" fill="none" xmlns="http://www.w3.org/2000/svg">
<g clip-path="url(#clip0_10_5089)">
<rect width="96" height="8" fill="#FFB9B9"/>
<path d="M-16.0049 12L-0.00366211 -4" stroke="#E85D5D" stroke-width="2" stroke-linecap="round"/>
<path d="M-8.00439 12L7.99683 -4" stroke="#E85D5D" stroke-width="2" stroke-linecap="round"/>
<path d="M-0.00366211 12L15.9976 -4" stroke="#E85D5D" stroke-width="2" stroke-linecap="round"/>
<path d="M7.99707 12L23.9983 -4" stroke="#E85D5D" stroke-width="2" stroke-linecap="round"/>
<path d="M15.9976 12L31.9988 -4" stroke="#E85D5D" stroke-width="2" stroke-linecap="round"/>
<path d="M23.998 12L39.9993 -4" stroke="#E85D5D" stroke-width="2" stroke-linecap="round"/>
<path d="M31.9988 12L48 -4" stroke="#E85D5D" stroke-width="2" stroke-linecap="round"/>
<path d="M39.9995 12L56.0007 -4" stroke="#E85D5D" stroke-width="2" stroke-linecap="round"/>
<path d="M48 12L64.0012 -4" stroke="#E85D5D" stroke-width="2" stroke-linecap="round"/>
<path d="M56.0005 12L72.0017 -4" stroke="#E85D5D" stroke-width="2" stroke-linecap="round"/>
<path d="M64.0012 12L80.0024 -4" stroke="#E85D5D" stroke-width="2" stroke-linecap="round"/>
<path d="M72.002 12L88.0032 -4" stroke="#E85D5D" stroke-width="2" stroke-linecap="round"/>
<path d="M80.0024 12L96.0037 -4" stroke="#E85D5D" stroke-width="2" stroke-linecap="round"/>
<path d="M88.0029 12L104.004 -4" stroke="#E85D5D" stroke-width="2" stroke-linecap="round"/>
<path d="M96.0037 12L112.005 -4" stroke="#E85D5D" stroke-width="2" stroke-linecap="round"/>
</g>
<defs>
<clipPath id="clip0_10_5089">
<rect width="96" height="8" fill="white"/>
</clipPath>
</defs>
</svg>
