<svg width="120" height="24" viewBox="0 0 120 24" fill="none" xmlns="http://www.w3.org/2000/svg">
<mask id="mask0_10_4143" style="mask-type:alpha" maskUnits="userSpaceOnUse" x="0" y="2" width="20" height="20">
<rect y="2" width="20" height="20" fill="#D9D9D9"/>
</mask>
<g mask="url(#mask0_10_4143)">
<path d="M12.4999 13.6667V12H19.1666V13.6667H12.4999ZM9.16659 19.5L6.52075 17.125C5.52075 16.2222 4.66311 15.4167 3.94784 14.7083C3.23256 14 2.64228 13.3333 2.177 12.7083C1.71172 12.0833 1.37145 11.4792 1.15617 10.8958C0.940891 10.3125 0.833252 9.70139 0.833252 9.0625C0.833252 7.75694 1.27075 6.67014 2.14575 5.80208C3.02075 4.93403 4.11103 4.5 5.41659 4.5C6.13881 4.5 6.82631 4.64931 7.47909 4.94792C8.13186 5.24653 8.69436 5.67361 9.16659 6.22917C9.63881 5.67361 10.2013 5.24653 10.8541 4.94792C11.5069 4.64931 12.1944 4.5 12.9166 4.5C14.0971 4.5 15.0867 4.85764 15.8853 5.57292C16.6839 6.28819 17.1805 7.125 17.3749 8.08333C17.1249 7.98611 16.8749 7.91319 16.6249 7.86458C16.3749 7.81597 16.1319 7.79167 15.8958 7.79167C14.493 7.79167 13.2985 8.28125 12.3124 9.26042C11.3263 10.2396 10.8333 11.4306 10.8333 12.8333C10.8333 13.5556 10.9791 14.2396 11.2708 14.8854C11.5624 15.5312 11.9721 16.0833 12.4999 16.5417C12.236 16.7778 11.8923 17.0799 11.4687 17.4479C11.0451 17.816 10.6805 18.1389 10.3749 18.4167L9.16659 19.5Z" fill="#D99E16"/>
</g>
<path d="M27.392 17L24.416 5.8H26.464L28.56 14.808L30.992 5.8H33.12L35.472 14.824L37.584 5.8H39.648L36.592 17H34.32L32.016 8.52L29.648 17H27.392ZM44.0511 17.192C43.2511 17.192 42.5471 17.0213 41.9391 16.68C41.3311 16.328 40.8565 15.8373 40.5151 15.208C40.1738 14.5787 40.0031 13.8533 40.0031 13.032C40.0031 12.1787 40.1685 11.432 40.4991 10.792C40.8405 10.152 41.3151 9.65067 41.9231 9.288C42.5418 8.92533 43.2565 8.744 44.0671 8.744C44.8565 8.744 45.5445 8.92 46.1311 9.272C46.7178 9.624 47.1711 10.0987 47.4911 10.696C47.8111 11.2827 47.9711 11.944 47.9711 12.68C47.9711 12.7867 47.9711 12.904 47.9711 13.032C47.9711 13.16 47.9605 13.2933 47.9391 13.432H41.3791V12.2H46.0351C46.0138 11.6133 45.8165 11.1547 45.4431 10.824C45.0698 10.4827 44.6058 10.312 44.0511 10.312C43.6565 10.312 43.2938 10.4027 42.9631 10.584C42.6325 10.7653 42.3711 11.0373 42.1791 11.4C41.9871 11.752 41.8911 12.2 41.8911 12.744V13.208C41.8911 13.7093 41.9818 14.1413 42.1631 14.504C42.3551 14.8667 42.6111 15.144 42.9311 15.336C43.2618 15.5173 43.6298 15.608 44.0351 15.608C44.4831 15.608 44.8511 15.512 45.1391 15.32C45.4378 15.128 45.6565 14.872 45.7951 14.552H47.7471C47.5978 15.0533 47.3525 15.5067 47.0111 15.912C46.6698 16.3067 46.2485 16.6213 45.7471 16.856C45.2458 17.08 44.6805 17.192 44.0511 17.192ZM52.4319 17.192C51.7705 17.192 51.2212 17.08 50.7839 16.856C50.3465 16.632 50.0212 16.3333 49.8079 15.96C49.5945 15.5867 49.4879 15.1813 49.4879 14.744C49.4879 14.232 49.6159 13.7893 49.8719 13.416C50.1385 13.0427 50.5279 12.7547 51.0399 12.552C51.5519 12.3387 52.1812 12.232 52.9279 12.232H54.9599C54.9599 11.8053 54.9012 11.4533 54.7839 11.176C54.6665 10.888 54.4852 10.6747 54.2399 10.536C53.9945 10.3973 53.6799 10.328 53.2959 10.328C52.8585 10.328 52.4852 10.4293 52.1759 10.632C51.8665 10.824 51.6745 11.1227 51.5999 11.528H49.7119C49.7759 10.952 49.9679 10.4613 50.2879 10.056C50.6079 9.64 51.0292 9.32 51.5519 9.096C52.0852 8.86133 52.6665 8.744 53.2959 8.744C54.0532 8.744 54.6985 8.87733 55.2319 9.144C55.7652 9.4 56.1705 9.77333 56.4479 10.264C56.7359 10.744 56.8799 11.3253 56.8799 12.008V17H55.2479L55.0559 15.704C54.9492 15.9173 54.8105 16.1147 54.6399 16.296C54.4799 16.4773 54.2932 16.6373 54.0799 16.776C53.8665 16.904 53.6212 17.0053 53.3439 17.08C53.0772 17.1547 52.7732 17.192 52.4319 17.192ZM52.8639 15.672C53.1732 15.672 53.4452 15.6187 53.6799 15.512C53.9252 15.3947 54.1332 15.2347 54.3039 15.032C54.4852 14.8187 54.6239 14.584 54.7199 14.328C54.8159 14.072 54.8799 13.8 54.9119 13.512V13.48H53.1359C52.7625 13.48 52.4532 13.528 52.2079 13.624C51.9625 13.7093 51.7865 13.8373 51.6799 14.008C51.5732 14.1787 51.5199 14.376 51.5199 14.6C51.5199 14.824 51.5732 15.016 51.6799 15.176C51.7865 15.336 51.9412 15.4587 52.1439 15.544C52.3465 15.6293 52.5865 15.672 52.8639 15.672ZM64.1314 17L60.5634 12.584L63.7634 8.936H66.0514L62.0674 13.368V11.88L66.5314 17H64.1314ZM58.9314 17V5.48H60.8514V17H58.9314Z" fill="#D99E16"/>
</svg>
